<?xml version="1.0" encoding="UTF-8" standalone="no"?>
<!-- Created with Inkscape (http://www.inkscape.org/) -->

<svg
   width="11.592028mm"
   height="11.416785mm"
   viewBox="0 0 11.592028 11.416785"
   version="1.1"
   id="svg5"
   inkscape:version="1.1.1 (1:1.1+202109281949+c3084ef5ed)"
   sodipodi:docname="drawing_kochtopf.svg"
   inkscape:export-filename="/home/david/Projects/Hackathons/DeveloperWeek2022/RecipeSuggestions/app/static/drawing_kochtopf.png"
   inkscape:export-xdpi="500"
   inkscape:export-ydpi="500"
   xmlns:inkscape="http://www.inkscape.org/namespaces/inkscape"
   xmlns:sodipodi="http://sodipodi.sourceforge.net/DTD/sodipodi-0.dtd"
   xmlns="http://www.w3.org/2000/svg"
   xmlns:svg="http://www.w3.org/2000/svg">
  <sodipodi:namedview
     id="namedview7"
     pagecolor="#ffffff"
     bordercolor="#666666"
     borderopacity="1.0"
     inkscape:pageshadow="2"
     inkscape:pageopacity="0.0"
     inkscape:pagecheckerboard="0"
     inkscape:document-units="mm"
     showgrid="false"
     inkscape:zoom="2.1997092"
     inkscape:cx="-16.593102"
     inkscape:cy="70.691162"
     inkscape:window-width="2488"
     inkscape:window-height="1376"
     inkscape:window-x="1992"
     inkscape:window-y="27"
     inkscape:window-maximized="1"
     inkscape:current-layer="layer1" />
  <defs
     id="defs2" />
  <g
     inkscape:label="Layer 1"
     inkscape:groupmode="layer"
     id="layer1"
     transform="translate(-66.414961,-144.17514)">
    <g
       id="g186"
       transform="matrix(0.10957742,0,0,0.10957742,59.137381,138.54256)">
      <path
         style="fill:none;stroke:#000000;stroke-width:0.264583px;stroke-linecap:butt;stroke-linejoin:miter;stroke-opacity:1"
         d="m 71.543883,112.57484 c -0.459222,5.2532 0.344553,10.30599 1.045286,15.46144 0.169913,1.25009 -0.103698,2.52743 0,3.78475 0.332291,4.02898 2.219796,10.18702 4.443445,13.36366 0.579593,0.82799 2.085443,1.78569 2.721649,2.38144 1.255956,1.1761 2.335827,2.53944 3.650073,3.65001 1.685311,1.42414 5.421476,4.65884 8.048418,4.19828 0.770882,-0.13515 1.73346,-0.69662 2.381444,-1.02061 4.268435,-2.13422 5.944158,-3.50947 8.584312,-7.56372 1.47643,-2.26724 2.80533,-3.78216 3.57274,-6.39136 0.25798,-0.87713 0.11846,-1.83467 0.34021,-2.72165 0.93624,-3.74497 3.26882,-7.19569 4.11221,-10.95398 0.31195,-1.3901 -0.33812,-2.59009 0.3402,-3.98899 1.22841,-2.53336 5.07727,-6.85304 5.07727,-10.06248"
         id="path42" />
      <path
         style="fill:none;stroke:#000000;stroke-width:0.264583px;stroke-linecap:butt;stroke-linejoin:miter;stroke-opacity:1"
         d="m 115.86114,112.71163 c 1.86966,0.566 3.76781,1.04528 5.609,1.698 0.0912,0.0323 0.0933,0.26443 0,0.29043 -4.18138,1.16458 -8.67169,-0.41788 -13.01073,-0.5315 -5.94069,-0.15557 -11.705112,-0.34021 -17.641886,-0.34021 -4.585472,0 -9.180615,0.2976 -13.756423,0 -1.881965,-0.1224 -3.678144,-0.83567 -5.517218,-1.25351 -0.150242,-0.79623 -2.116624,-10e-4 -2.644406,-0.7502 -0.205001,-0.29092 -0.181035,-0.69371 -0.340206,-1.01203 -0.05686,-0.1137 -0.984031,-0.75283 -0.676177,-0.95751 0.291172,-0.19359 3.707631,-0.21935 4.429741,-0.34021 3.938678,-0.65921 7.075043,-0.82227 10.877378,-1.01638 1.552072,-0.0792 3.096934,-0.26466 4.646439,-0.38398 0.209048,-0.0161 0.498753,-0.1643 0.629,0 0.402062,0.5072 0.529152,1.23066 1.020618,1.6518 0.809309,0.6935 5.665913,1.17981 7.084528,1.02062 5.165642,-0.57965 17.075672,-4.54555 22.271462,-2.03696 0.0945,0.0456 -0.0643,0.23192 0,0.31489 0.0958,0.1236 0.45038,0.132 0.55848,0.24365 0.41697,0.43066 0.6517,3.28157 0.34021,3.81111 -0.18304,0.31117 -0.56765,0.448 -0.87111,0.64355 -0.89304,0.57547 -2.02985,-0.63862 -3.0087,-1.05156 z"
         id="path44" />
      <path
         style="fill:none;stroke:#000000;stroke-width:0.264583px;stroke-linecap:butt;stroke-linejoin:miter;stroke-opacity:1"
         d="m 85.659697,107.17041 c 1.415166,-2.9113 3.564049,-5.40929 5.434743,-8.028901 0.29473,-0.412718 0.344202,-0.981139 0.680413,-1.360824 0.327506,-0.369855 0.949539,0.307523 1.442471,0.340204 1.376961,0.0913 2.762957,0.09078 4.139951,0 0.773552,-0.051 1.520198,-0.637696 2.365412,-0.340204 1.856013,0.653262 3.711623,8.368595 3.711623,10.884725"
         id="path46" />
      <path
         style="fill:none;stroke:#000000;stroke-width:0.264583px;stroke-linecap:butt;stroke-linejoin:miter;stroke-opacity:1"
         d="m 112.10508,124.13778 c 1.09924,0.69634 2.77579,1.27792 3.80979,1.99916 0.39613,0.27632 0.62029,2.94634 0.33598,3.3242 -0.56934,0.75664 -1.34728,2.01569 -2.03269,2.65632 -2.4289,2.27026 1.25335,-1.98735 -1.32868,0.58397 -1.3351,1.32955 1.18098,0.0685 -1.35659,1.35658 -1.07262,0.54445 -2.18159,-0.65412 -3.08245,-0.65412"
         id="path48" />
      <path
         style="fill:none;stroke:#000000;stroke-width:0.264583px;stroke-linecap:butt;stroke-linejoin:miter;stroke-opacity:1"
         d="m 71.481753,123.41154 c -7.964201,2.41134 -5.360823,8.87625 1.239645,8.87625"
         id="path50" />
      <path
         style="fill:none;stroke:#000000;stroke-width:0.264583px;stroke-linecap:butt;stroke-linejoin:miter;stroke-opacity:1"
         d="m 121.76375,85.356432 c -2.11466,-0.720045 -2.36734,0.488331 -3.81437,1.696691 -0.31294,0.261323 -0.71993,0.400521 -1.01638,0.680413 -0.0457,0.04311 0.0332,0.407389 0,0.482504 -0.8464,1.911983 3.11124,4.824741 4.80184,5.258205 2.15848,0.553424 4.7306,-0.500298 6.76476,-1.020619 1.34383,-0.343742 3.38878,-4.21203 4.37575,-5.396392 0.16233,-0.194802 0.48355,-0.180374 0.68041,-0.340206 1.44748,-1.175232 2.95384,-2.43645 4.36446,-3.670734 0.90721,-0.793816 1.86924,-1.529041 2.72165,-2.381443 0.96563,-0.96564 1.63861,-2.195428 2.72165,-3.061857 0.31927,-0.255423 0.7315,-0.391292 1.02061,-0.680413 0.95775,-0.957741 0.92835,-1.415587 1.70104,-2.381443 0.60632,-0.757901 1.43287,-0.905377 2.01656,-1.676384 0.50313,-0.664575 0.58726,-1.295037 1.01007,-1.999083 0.68675,-1.143524 2.14278,-1.828176 3.01917,-2.70456 0.60819,-0.608198 -0.94146,-1.022668 0.0519,-1.586143 0.94357,-0.535225 2.0359,-0.761296 3.00662,-1.24555 2.08814,-1.041691 4.57388,-2.59044 6.82107,-3.585329 3.61525,-1.600565 10.06058,-2.510681 10.06058,-7.405827 0,-1.272186 -0.17505,-1.880794 -1.31049,-2.613623 -0.95664,-0.617429 -2.23354,0.444259 -3.34599,0.686765 -1.19464,0.260422 -2.25695,0.111753 -3.39343,0.340207 -1.09062,0.219239 -2.40533,1.27386 -3.40206,1.701033 -2.15877,0.925187 -3.94729,2.421736 -6.0483,3.62178 -2.11019,1.205291 -4.46043,2.182786 -6.39331,3.697417 -0.17938,0.14056 -0.36299,0.994011 -0.50383,1.294866 -0.19934,0.425778 -0.70416,0.632047 -0.98657,1.007901 -1.17365,1.562013 -3.6587,4.2096 -4.49187,5.876052 -0.10142,0.202864 0.10143,0.477552 0,0.680413 -0.10682,0.21364 -3.89021,2.736469 -4.29253,3.023835 -1.16447,0.831768 -1.16249,1.847999 -1.99239,2.673311 -2.59926,2.584868 -6.28396,5.202661 -9.76058,6.389163 -0.5334,0.182036 -1.65242,-0.412784 -2.55703,-0.20833 -1.38207,0.312364 -2.43369,1.4204 -3.84568,1.4204"
         id="path52" />
      <path
         style="fill:none;stroke:#000000;stroke-width:0.264583px;stroke-linecap:butt;stroke-linejoin:miter;stroke-opacity:1"
         d="m 121.76375,85.356432 c 0.36017,1.297831 0.55794,2.652119 1.0805,3.893494 0.41618,0.988661 5.4746,-1.88755 5.65128,-1.968685"
         id="path54"
         inkscape:export-filename="/home/david/Projects/Hackathons/DeveloperWeek2022/RecipeSuggestions/app/static/drawing_kochtopf.png"
         inkscape:export-xdpi="500"
         inkscape:export-ydpi="500" />
    </g>
  </g>
</svg>
